<svg xmlns="http://www.w3.org/2000/svg" viewBox="0 0 880 350" font-family="ui-sans-serif, system-ui, -apple-system, 'Segoe UI', sans-serif">
  <defs>
    <marker id="ah2" markerWidth="9" markerHeight="9" refX="7" refY="4" orient="auto">
      <path d="M0,0 L8,4 L0,8 z" fill="#64748b"/>
    </marker>
  </defs>

  <rect width="880" height="350" fill="#ffffff"/>

  <!-- lanes -->
  <rect x="30" y="40" width="820" height="125" rx="12" fill="#f8fafc" stroke="#e2e8f0" stroke-width="1.5"/>
  <text x="48" y="64" font-size="13" font-weight="700" fill="#475569">you</text>
  <rect x="30" y="185" width="820" height="125" rx="12" fill="#f8fafc" stroke="#e2e8f0" stroke-width="1.5"/>
  <text x="48" y="209" font-size="13" font-weight="700" fill="#475569">machines</text>

  <!-- step 1 (you) -->
  <rect x="50" y="82" width="175" height="70" rx="10" fill="#ffffff" stroke="#94a3b8" stroke-width="1.5"/>
  <circle cx="64" cy="96" r="10" fill="#64748b"/>
  <text x="64" y="100" font-size="11" font-weight="700" fill="#ffffff" text-anchor="middle">1</text>
  <text x="137" y="113" font-size="12" fill="#1e293b" text-anchor="middle">paste the new value</text>
  <text x="137" y="131" font-size="12" fill="#1e293b" text-anchor="middle">into the Infisical UI</text>

  <!-- the empty rest of your lane -->
  <text x="560" y="122" font-size="13" font-style="italic" fill="#94a3b8" text-anchor="middle">that's it, you're done</text>

  <!-- step 2 (machines) -->
  <rect x="255" y="212" width="175" height="70" rx="10" fill="#eff6ff" stroke="#2563eb" stroke-width="1.5"/>
  <circle cx="269" cy="226" r="10" fill="#2563eb"/>
  <text x="269" y="230" font-size="11" font-weight="700" fill="#ffffff" text-anchor="middle">2</text>
  <text x="342" y="243" font-size="12" fill="#1e40af" text-anchor="middle">operator pulls it with</text>
  <text x="342" y="261" font-size="12" fill="#1e40af" text-anchor="middle">k8s native auth</text>

  <!-- step 3 (machines) -->
  <rect x="460" y="212" width="175" height="70" rx="10" fill="#eff6ff" stroke="#2563eb" stroke-width="1.5"/>
  <circle cx="474" cy="226" r="10" fill="#2563eb"/>
  <text x="474" y="230" font-size="11" font-weight="700" fill="#ffffff" text-anchor="middle">3</text>
  <text x="547" y="243" font-size="12" fill="#1e40af" text-anchor="middle">updates the</text>
  <text x="547" y="261" font-size="12" fill="#1e40af" text-anchor="middle">Kubernetes Secret</text>

  <!-- step 4 (machines) -->
  <rect x="665" y="212" width="175" height="70" rx="10" fill="#eff6ff" stroke="#2563eb" stroke-width="1.5"/>
  <circle cx="679" cy="226" r="10" fill="#2563eb"/>
  <text x="679" y="230" font-size="11" font-weight="700" fill="#ffffff" text-anchor="middle">4</text>
  <text x="752" y="243" font-size="12" fill="#1e40af" text-anchor="middle">auto-reload restarts</text>
  <text x="752" y="261" font-size="12" fill="#1e40af" text-anchor="middle">the workload</text>

  <!-- arrows -->
  <path d="M137,152 L137,247 L247,247" fill="none" stroke="#64748b" stroke-width="2" marker-end="url(#ah2)"/>
  <path d="M430,247 L452,247" fill="none" stroke="#64748b" stroke-width="2" marker-end="url(#ah2)"/>
  <path d="M635,247 L657,247" fill="none" stroke="#64748b" stroke-width="2" marker-end="url(#ah2)"/>
</svg>
